<svg width="164" height="31" viewBox="0 0 164 31" fill="none" xmlns="http://www.w3.org/2000/svg">
<g clip-path="url(#clip0_2099_62)">
<path d="M27.2246 0H3.93642C1.7624 0 0 1.75329 0 3.91608V27.0839C0 29.2467 1.7624 31 3.93642 31H27.2246C29.3987 31 31.1611 29.2467 31.1611 27.0839V3.91608C31.1611 1.75329 29.3987 0 27.2246 0Z" fill="white"/>
<mask id="mask0_2099_62" style="mask-type:luminance" maskUnits="userSpaceOnUse" x="1" y="1" width="29" height="28">
<path d="M29.4755 1.42613H1.55212V28.7565H29.4755V1.42613Z" fill="white"/>
</mask>
<g mask="url(#mask0_2099_62)">
<mask id="mask1_2099_62" style="mask-type:luminance" maskUnits="userSpaceOnUse" x="1" y="1" width="29" height="28">
<path d="M29.4861 1.38611H1.53516V28.7713H29.4861V1.38611Z" fill="white"/>
</mask>
<g mask="url(#mask1_2099_62)">
<path d="M16.023 12.8795L15.5889 11.9294L15.1548 12.8795L14.7313 13.8084C14.5048 14.3035 14.5471 14.8659 14.8436 15.3273L15.1548 15.8139L15.5889 16.4922L16.023 15.8139L16.3343 15.3273C16.6307 14.8638 16.671 14.3014 16.4465 13.8084L16.023 12.8795Z" fill="#0D406B"/>
<path d="M15.9638 7.94801L15.589 7.18333L15.2142 7.94801L14.8479 8.69584C14.6531 9.09398 14.6891 9.54688 14.9453 9.91974L15.2142 10.3116L15.589 10.8572L15.9638 10.3116L16.2327 9.91974C16.4889 9.54688 16.5228 9.09398 16.3301 8.69584L15.9638 7.94801Z" fill="#0D406B"/>
<path d="M15.7731 5.15262L15.5889 4.77344L15.4047 5.15262L15.2247 5.52337C15.1273 5.72139 15.1463 5.94468 15.2734 6.13006L15.4068 6.32386L15.591 6.5935L15.7752 6.32386L15.9086 6.13006C16.0357 5.94679 16.0526 5.72139 15.9574 5.52337L15.7774 5.15262H15.7731Z" fill="#0D406B"/>
<path d="M13.9585 6.05212L13.5159 5.31483L13.2131 6.10268L12.9167 6.87157C12.76 7.28235 12.8362 7.73104 13.1242 8.08494L13.427 8.4578L13.8505 8.97601L14.1745 8.40724L14.4074 7.99857C14.6276 7.61097 14.6234 7.15595 14.3926 6.77256L13.9606 6.05212H13.9585Z" fill="#0D406B"/>
<path d="M14.4836 16.1678C14.4836 16.1678 13.823 15.6664 13.7679 14.7121C13.7129 13.7579 13.9331 13.2228 12.8341 12.001C12.8341 12.001 12.8532 13.0543 12.5398 13.8927C12.2285 14.729 12.9061 16.2352 14.4836 16.1678Z" fill="#0D406B"/>
<path d="M13.5477 16.4458C13.5477 16.4458 12.6859 16.2899 11.9172 15.1335C11.1464 13.977 10.0284 13.3534 8.58215 13.682C8.58215 13.682 9.36986 14.1981 10.1406 15.1819C10.9114 16.1657 12.1374 16.7597 13.5498 16.4458" fill="#0D406B"/>
<path d="M14.2634 12.949C14.2634 12.949 14.0623 12.4034 13.5117 11.7461C12.9612 11.091 13.6218 10.044 13.8971 9.70066C13.8971 9.70066 14.0623 10.0756 14.5196 10.6697C14.977 11.2637 14.905 11.7461 14.2634 12.949Z" fill="#0D406B"/>
<path d="M12.688 10.8403C12.688 10.8403 12.6689 10.6676 12.9802 10.0588C13.2915 9.44998 12.9802 8.63685 12.1184 8.01331C12.1184 8.01331 12.0083 8.57576 11.8071 9.15296C11.6059 9.73015 11.8812 10.2463 12.6859 10.8403" fill="#0D406B"/>
<path d="M10.2952 11.2153C10.2952 11.2153 10.219 11.0552 10.3122 10.3958C10.4032 9.73647 9.83152 9.03499 8.79395 8.64949C8.79395 8.64949 8.87865 9.21405 8.88076 9.81652C8.88288 10.419 9.3212 10.8445 10.2931 11.2153" fill="#0D406B"/>
<path d="M11.1613 13.2586C11.1613 13.2586 11.0025 13.1512 10.706 12.5361C10.4075 11.9231 9.50541 11.5502 8.37891 11.645C8.37891 11.645 8.777 12.1021 9.12638 12.6267C9.47577 13.1512 10.1004 13.3408 11.1613 13.2565" fill="#0D406B"/>
<path d="M11.9363 13.1659C11.9363 13.1659 12.4317 12.4623 12.1184 11.527C11.9214 10.933 10.9813 9.96609 10.9813 9.96609C10.9813 9.96609 10.1936 12.1843 11.9341 13.168" fill="#0D406B"/>
<path d="M17.2173 6.05212L17.6598 5.31483L17.9626 6.10268L18.2591 6.87157C18.4179 7.28235 18.3395 7.73104 18.0516 8.08494L17.7466 8.4578L17.3231 8.97601L16.9992 8.40724L16.7662 7.99857C16.546 7.61097 16.5524 7.15595 16.7811 6.77256L17.213 6.05212H17.2173Z" fill="#0D406B"/>
<path d="M16.6921 16.1678C16.6921 16.1678 17.3528 15.6664 17.4079 14.7121C17.4629 13.7579 17.2427 13.2228 18.3417 12.001C18.3417 12.001 18.3226 13.0543 18.636 13.8927C18.9494 14.7311 18.2697 16.2352 16.6921 16.1678Z" fill="#0D406B"/>
<path d="M17.626 16.4458C17.626 16.4458 18.4878 16.2899 19.2565 15.1335C20.0273 13.977 21.1453 13.3534 22.5915 13.682C22.5915 13.682 21.8038 14.1981 21.0331 15.1819C20.2623 16.1657 19.0363 16.7597 17.6239 16.4458" fill="#0D406B"/>
<path d="M16.9123 12.949C16.9123 12.949 17.1135 12.4034 17.6641 11.7461C18.2146 11.091 17.5539 10.044 17.2787 9.70066C17.2787 9.70066 17.1135 10.0756 16.6561 10.6697C16.1988 11.2637 16.2707 11.7461 16.9123 12.949Z" fill="#0D406B"/>
<path d="M18.4878 10.8403C18.4878 10.8403 18.5069 10.6676 18.1956 10.0588C17.8844 9.44998 18.1956 8.63685 19.0575 8.01331C19.0575 8.01331 19.1676 8.57576 19.3687 9.15296C19.5699 9.73015 19.2946 10.2463 18.49 10.8403" fill="#0D406B"/>
<path d="M19.9065 9.13611C19.9065 9.13611 19.9489 8.99708 19.7858 8.45569C19.6249 7.91431 20.0082 7.28656 20.815 6.88842C20.815 6.88842 20.8171 7.3645 20.8933 7.86797C20.9695 8.36932 20.6625 8.75693 19.9044 9.13822" fill="#0D406B"/>
<path d="M20.0145 13.2586C20.0145 13.2586 20.1733 13.1512 20.4698 12.5361C20.7684 11.9231 21.6704 11.5502 22.7969 11.645C22.7969 11.645 22.3988 12.1021 22.0494 12.6267C21.7001 13.1512 21.0754 13.3408 20.0145 13.2565" fill="#0D406B"/>
<path d="M19.2396 13.1659C19.2396 13.1659 18.7441 12.4623 19.0553 11.527C19.2523 10.933 20.1924 9.96609 20.1924 9.96609C20.1924 9.96609 20.9802 12.1843 19.2396 13.168" fill="#0D406B"/>
<path d="M11.3158 9.13611C11.3158 9.13611 11.2735 8.99708 11.4344 8.45569C11.5954 7.91431 11.2121 7.28656 10.4053 6.88842C10.4053 6.88842 10.4032 7.3645 10.327 7.86797C10.2507 8.36932 10.5578 8.75693 11.3158 9.13822" fill="#0D406B"/>
<path d="M17.2215 17.0567C17.2215 17.0567 16.5905 18.3017 16.6922 22.1272C16.7366 23.7998 17.3994 28.7544 17.3994 28.7544H13.7764C13.7764 28.7544 14.4222 24.1347 14.4836 22.1272C14.5895 18.7104 13.9542 17.0567 13.9542 17.0567L15.5741 17.5855L17.2236 17.0567H17.2215Z" fill="#0D406B"/>
<path d="M15.5869 4.35213C15.5085 4.10777 15.4683 3.86341 15.4387 3.62116C15.4111 3.3768 15.3984 3.13244 15.3984 2.89018C15.3984 2.64582 15.4111 2.40146 15.4387 2.15921C15.4683 1.91485 15.5085 1.67049 15.5869 1.42824C15.6652 1.6726 15.7076 1.91696 15.7351 2.15921C15.7626 2.40357 15.7754 2.64793 15.7754 2.89018C15.7754 3.13454 15.7626 3.3789 15.7351 3.62116C15.7055 3.86552 15.6652 4.10988 15.5869 4.35213Z" fill="#0D406B"/>
<path d="M14.8499 5.02412C14.7419 4.7945 14.6721 4.56278 14.6128 4.32685C14.5556 4.09302 14.5111 3.85498 14.4815 3.61694C14.4518 3.3789 14.4349 3.13875 14.4307 2.8965C14.4307 2.65425 14.4413 2.41199 14.4878 2.16342C14.5958 2.39304 14.6678 2.62476 14.725 2.86069C14.7822 3.09662 14.8245 3.33256 14.8542 3.5706C14.8838 3.80864 14.9007 4.04878 14.9029 4.29104C14.9029 4.53329 14.8923 4.77554 14.8457 5.02412" fill="#0D406B"/>
<path d="M14.0516 4.83664C13.9225 4.65126 13.8293 4.45535 13.7467 4.25734C13.6663 4.05932 13.6006 3.85498 13.5477 3.65065C13.4947 3.44421 13.4524 3.23566 13.427 3.0229C13.4016 2.81014 13.3889 2.59316 13.4122 2.36776C13.5413 2.55314 13.6345 2.74905 13.7171 2.94706C13.7975 3.14508 13.8632 3.34731 13.9161 3.55375C13.9691 3.76019 14.0093 3.96874 14.0368 4.1815C14.0622 4.39426 14.0749 4.61124 14.0538 4.83453" fill="#0D406B"/>
<path d="M13.2004 4.80082C13.0585 4.65547 12.9505 4.49537 12.8531 4.33106C12.7578 4.16675 12.6753 3.99612 12.6075 3.82128C12.5376 3.64643 12.4804 3.46738 12.436 3.282C12.3936 3.09662 12.3619 2.90703 12.3661 2.7027C12.5101 2.84805 12.616 3.00815 12.7134 3.17246C12.8087 3.33677 12.8912 3.5074 12.959 3.68224C13.0289 3.85709 13.086 4.03614 13.1305 4.22152C13.1729 4.4069 13.2046 4.59649 13.2004 4.80082Z" fill="#0D406B"/>
<path d="M12.6435 5.46439C12.4699 5.31061 12.328 5.13788 12.1946 4.96093C12.0634 4.78187 11.9469 4.5986 11.841 4.4069C11.7351 4.21521 11.6399 4.01719 11.5594 3.81286C11.4789 3.60641 11.409 3.39576 11.373 3.16615C11.5488 3.31992 11.6907 3.49055 11.822 3.66961C11.9532 3.84656 12.0697 4.03194 12.1756 4.22363C12.2815 4.41533 12.3767 4.61335 12.4572 4.81768C12.5377 5.02412 12.6075 5.23478 12.6457 5.46229" fill="#0D406B"/>
<path d="M12.3069 6.34282C12.0867 6.17219 11.9003 5.98049 11.7203 5.78037C11.5425 5.58025 11.3773 5.3717 11.2206 5.15683C11.066 4.94196 10.9199 4.71656 10.7886 4.48484C10.6573 4.25102 10.5345 4.01298 10.4435 3.74966C10.6637 3.92029 10.85 4.11198 11.03 4.31211C11.2079 4.51223 11.3731 4.72078 11.5276 4.93564C11.6822 5.15262 11.8283 5.37591 11.9596 5.60763C12.0909 5.84146 12.2137 6.0795 12.3048 6.34071" fill="#0D406B"/>
<path d="M11.8643 7.24232C11.6314 7.03587 11.4302 6.80837 11.2375 6.57664L10.6764 5.8878L10.1174 5.19685C9.93104 4.96092 9.74682 4.71867 9.59436 4.44692C9.86116 4.60702 10.1004 4.7945 10.3334 4.99041C10.5663 5.19053 10.778 5.41172 10.9707 5.64976C11.1634 5.8878 11.3349 6.1427 11.4832 6.41023C11.6272 6.67776 11.7606 6.9495 11.8622 7.24232" fill="#0D406B"/>
<path d="M16.3322 5.02412C16.2835 4.77554 16.275 4.53329 16.275 4.29104C16.2771 4.04878 16.2941 3.80864 16.3237 3.5706C16.3534 3.33256 16.3957 3.09452 16.4529 2.86069C16.5122 2.62686 16.5821 2.39304 16.6901 2.16342C16.7388 2.41199 16.7493 2.65425 16.7472 2.8965C16.7451 3.13875 16.7282 3.3789 16.6964 3.61694C16.6668 3.85498 16.6223 4.09302 16.5651 4.32685C16.5058 4.56068 16.436 4.7945 16.328 5.02412" fill="#0D406B"/>
<path d="M17.1305 4.83664C17.1072 4.61124 17.1221 4.39637 17.1475 4.18361C17.1729 3.97084 17.2152 3.7623 17.2682 3.55585C17.3211 3.34941 17.3867 3.14718 17.4672 2.94917C17.5498 2.75115 17.6408 2.55524 17.7721 2.36987C17.7954 2.59527 17.7806 2.81224 17.7573 3.025C17.7298 3.23776 17.6895 3.44631 17.6366 3.65275C17.5837 3.8592 17.518 4.06143 17.4376 4.25944C17.355 4.45746 17.2618 4.65337 17.1326 4.83874" fill="#0D406B"/>
<path d="M17.9817 4.80082C17.9775 4.59649 18.0092 4.4069 18.0516 4.22152C18.096 4.03614 18.1532 3.85709 18.2231 3.68224C18.293 3.5074 18.3734 3.33677 18.4687 3.17246C18.5661 3.00815 18.672 2.84805 18.816 2.7027C18.8202 2.90703 18.7885 3.09662 18.7461 3.282C18.7017 3.46738 18.6445 3.64643 18.5746 3.82128C18.5047 3.99612 18.4243 4.16675 18.329 4.33106C18.2316 4.49537 18.1236 4.65547 17.9817 4.80082Z" fill="#0D406B"/>
<path d="M18.5386 5.46439C18.5767 5.23478 18.6466 5.02412 18.727 4.81979C18.8096 4.61545 18.9028 4.41744 19.0087 4.22574C19.1145 4.03404 19.231 3.84867 19.3623 3.67172C19.4936 3.49477 19.6354 3.32203 19.8112 3.16825C19.7752 3.39787 19.7053 3.60852 19.6248 3.81496C19.5444 4.0193 19.4491 4.21731 19.3432 4.40901C19.2373 4.60071 19.1188 4.78608 18.9896 4.96303C18.8583 5.13998 18.7164 5.31272 18.5407 5.4665" fill="#0D406B"/>
<path d="M18.8754 6.34282C18.9664 6.08161 19.0892 5.84146 19.2205 5.60974C19.3539 5.37802 19.4979 5.15473 19.6525 4.93775C19.8071 4.72078 19.9743 4.51223 20.1522 4.31421C20.3322 4.1162 20.5185 3.92239 20.7388 3.75176C20.6477 4.01297 20.5249 4.25312 20.3936 4.48695C20.2602 4.71867 20.1162 4.94196 19.9616 5.15894C19.8071 5.37381 19.6398 5.58236 19.4619 5.78248C19.2819 5.98049 19.0956 6.1743 18.8754 6.34493" fill="#0D406B"/>
<path d="M19.3179 7.24232C19.4196 6.9495 19.553 6.67776 19.6969 6.41023C19.8452 6.1427 20.0167 5.8878 20.2094 5.64976C20.4021 5.41172 20.6159 5.19053 20.8467 4.99041C21.0797 4.7945 21.3168 4.60702 21.5858 4.44692C21.4333 4.71656 21.2491 4.96092 21.0627 5.19685L20.5037 5.8878L19.9426 6.57664C19.7499 6.80837 19.5508 7.03798 19.3158 7.24232" fill="#0D406B"/>
<path d="M20.8806 11.19C20.8806 11.19 20.9569 11.0299 20.8637 10.3705C20.7726 9.71119 21.3444 9.00971 22.3819 8.62421C22.3819 8.62421 22.2972 9.18877 22.2951 9.79124C22.293 10.3937 21.8547 10.8192 20.8828 11.19" fill="#0D406B"/>
<path d="M7.36249 18.6725C7.36249 18.6725 8.59911 19.1338 11.03 21.59C12.0506 22.6201 12.8362 23.4754 13.3275 24.1706C12.9866 21.5837 11.7584 19.3992 9.68539 17.6992C9.38682 17.4359 9.03955 17.1579 8.64781 16.8924C7.26297 15.955 6.58537 14.4889 6.58537 14.4889C6.58537 14.4889 6.58537 15.6812 6.60443 15.8054C6.46468 15.7422 6.33127 15.6769 6.19787 15.6116C5.55415 15.1482 4.34506 14.057 3.93215 12.9068C3.93215 12.9068 3.79028 13.503 3.76275 14.0949C2.67012 13.2376 1.97347 12.3907 1.54785 11.7524C1.6262 13.4461 2.06029 15.0534 2.80564 16.5048C2.67012 16.4079 1.89512 15.8518 1.61349 15.5316C1.61349 15.5316 2.10052 17.3559 3.47054 18.6746C4.58222 19.7447 5.7532 20.3092 6.1534 20.4841C6.1767 20.5009 6.19999 20.5199 6.22328 20.5368L4.97184 20.4125C4.97184 20.4125 5.94377 21.4468 7.99986 22.4348C9.60916 23.21 10.9898 23.7303 12.2645 24.6698C11.2968 23.1742 9.70021 20.7853 7.35826 18.6767" fill="#0D406B"/>
<path d="M23.6651 18.6725C23.6651 18.6725 22.4284 19.1338 19.9976 21.59C18.9769 22.6201 18.1913 23.4754 17.7001 24.1706C18.041 21.5837 19.2691 19.3992 21.3422 17.6992C21.6407 17.4359 21.988 17.1579 22.3797 16.8924C23.7646 15.955 24.4422 14.4889 24.4422 14.4889C24.4422 14.4889 24.4422 15.6812 24.4231 15.8054C24.5629 15.7422 24.6963 15.6769 24.8297 15.6116C25.4734 15.1482 26.6825 14.057 27.0954 12.9068C27.0954 12.9068 27.2373 13.503 27.2648 14.0949C28.3574 13.2376 29.0541 12.3907 29.4797 11.7524C29.4014 13.4461 28.9673 15.0534 28.2219 16.5048C28.3574 16.4079 29.1324 15.8518 29.4141 15.5316C29.4141 15.5316 28.927 17.3559 27.557 18.6746C26.4453 19.7447 25.2744 20.3092 24.8741 20.4841C24.8509 20.5009 24.8276 20.5199 24.8043 20.5368L26.0557 20.4125C26.0557 20.4125 25.0838 21.4468 23.0277 22.4348C21.4184 23.21 20.0378 23.7303 18.7631 24.6698C19.7308 23.1742 21.3273 20.7853 23.6693 18.6767" fill="#0D406B"/>
</g>
</g>
<mask id="mask2_2099_62" style="mask-type:luminance" maskUnits="userSpaceOnUse" x="39" y="6" width="125" height="19">
<path d="M163.958 6.35757H39.0424V24.5118H163.958V6.35757Z" fill="white"/>
</mask>
<g mask="url(#mask2_2099_62)">
<mask id="mask3_2099_62" style="mask-type:luminance" maskUnits="userSpaceOnUse" x="39" y="6" width="125" height="19">
<path d="M164 6.3365H39.0148V24.5582H164V6.3365Z" fill="white"/>
</mask>
<g mask="url(#mask3_2099_62)">
<path d="M158.13 18.11C156.839 18.2933 156.415 18.3733 155.941 18.5819C154.939 19.0537 154.226 20.0775 154.226 21.1266C154.226 22.1757 154.912 22.8329 155.888 22.8329C157.179 22.8329 158.13 21.6258 158.13 19.9722V18.11ZM163.96 22.3863C163.168 23.724 162.141 24.4592 161.006 24.4592C159.792 24.4592 158.922 23.8293 158.42 22.597C157.287 23.962 156.152 24.4592 154.281 24.4592C151.985 24.4592 150.537 23.3574 150.537 21.5732C150.537 19.7889 151.803 18.6345 154.414 17.8214C155.521 17.4802 156.049 17.3748 158.132 17.0336V15.6159C158.132 14.0675 157.34 13.2544 155.837 13.2544C155.045 13.2544 153.832 13.701 153.832 13.9896C153.832 14.0149 153.857 14.0675 153.938 14.1202C154.34 14.4488 154.573 14.9397 154.571 15.4579C154.571 16.4816 153.832 17.2147 152.856 17.2147C151.879 17.2147 151.062 16.4543 151.062 15.5358C151.062 13.6989 153.357 12.2306 156.178 12.2306C157.893 12.2306 159.394 12.6498 160.371 13.385C161.347 14.0928 161.637 14.7501 161.637 16.2183V21.4384C161.637 22.1462 161.849 22.4621 162.323 22.4621C162.666 22.4621 162.981 22.2789 163.377 21.8323L163.958 22.3842L163.96 22.3863ZM148.229 19.9195C147.227 21.9924 146.12 22.8835 144.536 22.8835C142.611 22.8835 141.582 21.1771 141.582 18.0047C141.582 14.8322 142.505 13.3092 144.43 13.3092C145.3 13.3092 146.486 13.7284 146.486 14.017C146.486 14.0949 146.433 14.1476 146.274 14.1476C145.508 14.2761 144.955 14.9502 144.983 15.7212C144.966 16.7323 145.775 17.5665 146.791 17.5834C146.804 17.5834 146.816 17.5834 146.829 17.5834C147.937 17.5834 148.729 16.7429 148.729 15.5885C148.729 13.6989 146.829 12.336 144.14 12.336C140.447 12.336 137.889 14.9081 137.889 18.5798C137.889 22.2515 140.21 24.5097 143.613 24.5097C146.382 24.5097 148.28 23.0667 149.15 20.3387L148.227 19.9195H148.229ZM114.023 23.7766C114.023 23.9641 113.87 24.1179 113.68 24.1179H107.744C107.556 24.1179 107.401 23.9662 107.401 23.7766V23.2563C107.401 23.1657 107.473 23.092 107.562 23.0857C108.674 23.0225 108.746 22.7844 108.746 20.6273V16.509C108.746 14.9354 108.244 14.2782 107.058 14.2782C105.686 14.2782 104.712 15.6159 104.712 17.5834V20.6273C104.712 22.7507 104.784 23.0183 105.792 23.0857C105.881 23.092 105.951 23.1657 105.951 23.2563V23.7787C105.951 23.9662 105.798 24.12 105.608 24.12H99.7C99.5116 24.12 99.357 23.9683 99.357 23.7787V23.2605C99.357 23.1699 99.429 23.0941 99.5222 23.0899C100.251 23.0625 100.592 23.0035 100.888 22.8076C101.284 22.5717 101.309 22.4137 101.309 20.6821V15.3294C101.309 13.6778 101.21 13.5514 99.5285 13.5451C99.4354 13.5451 99.3591 13.4693 99.3591 13.3745V12.7425C99.3591 12.6477 99.4354 12.5719 99.5306 12.5719C100.509 12.5656 101.134 12.515 102.629 12.416C103.287 12.3633 103.789 12.3107 103.948 12.3107L104.435 12.2664C104.486 12.2622 104.528 12.3001 104.528 12.3507V14.5394C105.61 12.9911 106.902 12.2306 108.536 12.2306C109.644 12.2306 110.592 12.6246 111.226 13.385C111.884 14.1455 112.149 15.0387 112.149 16.5069V20.6779C112.149 22.4095 112.174 22.5675 112.57 22.8034C112.839 22.974 113.178 23.0541 113.858 23.0857C113.949 23.0899 114.021 23.1636 114.021 23.2542V23.7745L114.023 23.7766ZM93.1273 19.9722C93.1273 21.6258 92.1787 22.8329 90.8849 22.8329C89.9087 22.8329 89.2227 22.1251 89.2227 21.1266C89.2227 20.0775 89.9342 19.0537 90.9378 18.5819C91.4122 18.3712 91.8335 18.2933 93.1273 18.11V19.9722ZM98.3745 21.8344C97.9785 22.281 97.663 22.4643 97.32 22.4643C96.8457 22.4643 96.6339 22.1504 96.6339 21.4405V16.2204C96.6339 14.7522 96.3438 14.0949 95.3677 13.3871C94.3915 12.6519 92.8881 12.2327 91.175 12.2327C88.3524 12.2327 86.0591 13.701 86.0591 15.5379C86.0591 16.4564 86.8765 17.2168 87.8527 17.2168C88.8288 17.2168 89.5657 16.4816 89.5657 15.46C89.5678 14.9418 89.3349 14.4509 88.9326 14.1223C88.8542 14.0696 88.8267 14.017 88.8267 13.9917C88.8267 13.7031 90.04 13.2565 90.8299 13.2565C92.3333 13.2565 93.1252 14.0696 93.1252 15.618V17.0357C91.0416 17.3769 90.5144 17.4823 89.4069 17.8235C86.796 18.6366 85.5298 19.869 85.5298 21.5753C85.5298 23.2816 86.9802 24.4613 89.2756 24.4613C91.1475 24.4613 92.2825 23.962 93.4153 22.5991C93.9172 23.8314 94.7875 24.4613 95.9987 24.4613C97.1336 24.4613 98.1606 23.7261 98.9526 22.3884L98.3724 21.8365L98.3745 21.8344ZM84.507 19.9195C84.4287 21.4931 84.3228 22.0703 84.0052 22.7002C83.3996 23.8799 82.3175 24.4844 80.8141 24.4844C79.7321 24.4844 78.8893 24.1432 78.3345 23.5133C77.7543 22.8055 77.623 22.3336 77.623 20.7053V13.621H76.2318C76.1853 13.621 76.1471 13.583 76.1471 13.5367V12.8689C76.1471 12.8331 76.1704 12.8015 76.2043 12.7889C77.8327 12.2475 78.9211 10.7855 79.442 8.47886H81.0237V12.5719H84.0835V13.621H81.0237V21.0971C81.0237 22.4348 81.2863 22.934 81.9724 22.934C82.921 22.934 83.3445 22.0682 83.4758 19.9174H84.5049L84.507 19.9195ZM134.001 6.35756C132.907 6.34914 132.017 7.24653 132.049 8.34615C132.081 9.38889 132.979 10.2357 134.027 10.2147C135.064 10.1936 135.905 9.36151 135.926 8.32508C135.943 7.25496 135.086 6.37442 134.01 6.35756C134.008 6.35756 134.003 6.35756 134.001 6.35756ZM135.647 12.2685C133.584 12.4666 132.866 12.5192 130.637 12.5698C130.543 12.5719 130.467 12.6477 130.467 12.7404V13.3829C130.467 13.4735 130.539 13.5493 130.63 13.5535C132.265 13.6294 132.339 13.7221 132.339 15.0934V20.6821C132.339 22.4137 132.314 22.5717 131.918 22.8076C131.623 22.9782 131.308 23.0583 130.63 23.0899C130.539 23.0941 130.467 23.1699 130.467 23.2605V23.7787C130.467 23.9662 130.62 24.12 130.81 24.12H137.298C137.487 24.12 137.641 23.9683 137.641 23.7787V23.2605C137.641 23.1699 137.569 23.0941 137.478 23.0899C136.777 23.0604 136.46 23.0014 136.165 22.8076C135.769 22.5717 135.744 22.4411 135.744 20.6821V12.3549C135.744 12.3044 135.7 12.2664 135.649 12.2707M72.4225 6.35756C73.4982 6.37442 74.3557 7.25496 74.3388 8.32508C74.3176 9.36361 73.477 10.1957 72.4394 10.2147C71.3913 10.2357 70.4934 9.38678 70.4617 8.34615C70.4278 7.24653 71.3171 6.34914 72.414 6.35756C72.4161 6.35756 72.4204 6.35756 72.4225 6.35756ZM74.1546 12.3528V20.68C74.1546 22.4369 74.18 22.5696 74.576 22.8055C74.8703 23.0014 75.1879 23.0604 75.8888 23.0878C75.9799 23.092 76.0519 23.1657 76.0519 23.2584V23.7766C76.0519 23.9641 75.8994 24.1179 75.7088 24.1179H69.2208C69.0324 24.1179 68.8778 23.9662 68.8778 23.7766V23.2584C68.8778 23.1678 68.9498 23.092 69.0408 23.0878C69.7184 23.0562 70.0339 22.9761 70.3283 22.8055C70.7242 22.5696 70.7497 22.4116 70.7497 20.68V15.0913C70.7497 13.72 70.6755 13.6273 69.0408 13.5514C68.9498 13.5472 68.8778 13.4714 68.8778 13.3808V12.7383C68.8778 12.6456 68.954 12.5698 69.0472 12.5677C71.2769 12.5171 71.9947 12.4623 74.0572 12.2664C74.108 12.2622 74.1525 12.3001 74.1525 12.3507M64.791 23.2647C64.791 23.1721 64.7148 23.0941 64.6216 23.0941C63.6963 23.092 63.349 23.0604 63.025 22.9361C62.3919 22.7002 62.3665 22.5949 62.3665 20.68V18.8178C62.3665 17.2969 62.9721 15.5906 63.8699 14.5668C64.16 14.2255 64.4755 13.9369 64.556 13.9369C64.5941 13.9306 64.6301 13.958 64.6343 13.9959C64.6343 14.0022 64.6343 14.0086 64.6343 14.0149C64.6343 14.0359 64.6237 14.0528 64.6089 14.0675C64.5221 14.2929 64.4776 14.5331 64.4776 14.7753C64.4776 15.7991 65.2166 16.5322 66.2182 16.5322C67.3003 16.5322 68.1705 15.6411 68.1705 14.4867C68.1705 13.2017 67.169 12.3086 65.7439 12.3086C64.8821 12.3044 64.0563 12.6456 63.4485 13.2523C62.8429 13.8042 62.5253 14.3814 62.1039 15.6664L62.0298 12.4329C62.0277 12.3338 61.9409 12.258 61.8413 12.2664C61.7355 12.2749 61.6296 12.2896 61.5258 12.3086L60.2342 12.4392C59.7069 12.4918 59.1797 12.5171 58.6778 12.5171L57.492 12.5424C57.3777 12.5424 57.2633 12.5466 57.149 12.555C57.06 12.5614 56.9923 12.6372 56.9923 12.7257V13.385C56.9923 13.4756 57.0622 13.5472 57.1511 13.5556C57.2294 13.562 57.3078 13.5641 57.3861 13.5641C58.7308 13.5894 58.9679 13.8274 58.9679 15.2177V20.6737C58.9679 22.4053 58.9425 22.5633 58.5465 22.7992C58.2522 22.9951 57.888 23.0541 57.1553 23.0815C57.0643 23.0857 56.9923 23.1594 56.9923 23.25V23.7703C56.9923 23.9578 57.1447 24.1095 57.3353 24.1095H64.4565C64.6449 24.1095 64.7995 23.9578 64.7995 23.7682V23.2563L64.791 23.2647ZM45.5557 21.5458C45.5557 22.7255 45.7674 22.9635 46.7415 22.9635H48.4821C50.7774 22.9635 52.2787 21.5458 52.2787 19.3171C52.2787 16.9556 50.7499 15.6432 47.9802 15.6432H45.5536V21.5458H45.5557ZM47.9294 14.4636C49.0644 14.4636 49.5387 14.333 50.2227 13.8611C51.1184 13.2312 51.5673 12.2601 51.5673 10.9751C51.5673 9.76807 51.1184 8.79695 50.2756 8.19448C49.7483 7.82794 49.1936 7.69522 48.2195 7.69522H46.7161C45.6616 7.69522 45.5557 7.80055 45.5557 9.0076V14.4636H47.9294ZM39.0423 23.2774C39.0423 23.132 39.1609 23.0141 39.307 23.0141L40.0184 22.9888C41.3906 22.9635 41.6002 22.6475 41.6002 20.4967V10.2378C41.6002 8.58419 41.5219 8.24503 41.0454 7.95433C40.7299 7.77106 40.5711 7.74367 39.3048 7.7184C39.1545 7.70365 39.0402 7.57726 39.0402 7.42769V6.78519C39.0402 6.6904 39.1164 6.61456 39.2117 6.61456H48.8251C53.4412 6.61456 55.5227 7.87428 55.5227 10.6802C55.5227 13.0416 53.9664 14.4046 50.6186 15.0092C52.3063 15.1924 53.2549 15.4284 54.2057 15.8497C55.7874 16.5849 56.6853 17.8446 56.6853 19.3908C56.6853 20.937 55.815 22.2241 54.3645 23.0646C52.9669 23.8251 51.5419 24.1137 49.274 24.1137H39.2138C39.1185 24.1137 39.0423 24.0378 39.0423 23.9431V23.2732V23.2774ZM129.576 23.2563C129.576 23.1657 129.504 23.092 129.413 23.0878C128.733 23.0562 128.394 22.9761 128.125 22.8055C127.729 22.5696 127.704 22.4116 127.704 20.68V16.509C127.704 15.0408 127.439 14.1476 126.781 13.3871C126.148 12.6267 125.199 12.2327 124.091 12.2327C122.457 12.2327 121.165 12.9932 120.083 14.5415V12.3528C120.083 12.3023 120.041 12.2643 119.99 12.2685L119.503 12.3128C119.344 12.3128 118.844 12.3654 118.184 12.4181C116.687 12.5171 116.064 12.5698 115.084 12.574C114.988 12.574 114.912 12.6498 114.912 12.7446V13.3766C114.912 13.4693 114.988 13.5472 115.082 13.5472C116.765 13.5535 116.862 13.6799 116.862 15.3315V20.6842C116.862 22.4158 116.837 22.5738 116.441 22.8097C116.147 23.0056 115.806 23.0646 115.075 23.092C114.984 23.0962 114.912 23.1699 114.912 23.2626V23.7808C114.912 23.9683 115.065 24.1221 115.255 24.1221H121.163C121.351 24.1221 121.506 23.9704 121.506 23.7808V23.2584C121.506 23.1699 121.436 23.0941 121.347 23.0878C120.339 23.0225 120.267 22.7528 120.267 20.6294V17.5855C120.267 15.618 121.243 14.2803 122.613 14.2803C123.799 14.2803 124.301 14.9354 124.301 16.5111V20.6294C124.301 22.7866 124.229 23.0246 123.117 23.0878C123.026 23.092 122.956 23.1678 122.956 23.2584V23.7787C122.956 23.9662 123.109 24.12 123.3 24.12H129.235C129.423 24.12 129.578 23.9683 129.578 23.7787V23.2584L129.576 23.2563Z" fill="white"/>
</g>
</g>
</g>
<defs>
<clipPath id="clip0_2099_62">
<rect width="164" height="31" fill="white"/>
</clipPath>
</defs>
</svg>
